<svg viewBox="0 0 120 120" xmlns="http://www.w3.org/2000/svg" role="img" aria-labelledby="title desc">
  <title id="title">NairobiMart logo</title>
  <desc id="desc">A modern NairobiMart logo with a stylized lock icon, gold accent, and bold N mark.</desc>
  <defs>
    <linearGradient id="shadow" x1="0" y1="0" x2="0" y2="1">
      <stop offset="0%" stop-color="#0f172a" />
      <stop offset="100%" stop-color="#020617" />
    </linearGradient>
  </defs>
  <rect x="10" y="24" width="100" height="80" rx="24" fill="url(#shadow)" />
  <path d="M30 24c0-13.25 10.75-24 24-24s24 10.75 24 24v10h-8V24c0-8.84-7.16-16-16-16s-16 7.16-16 16v10h-8V24Z" fill="#0f172a" />
  <rect x="16" y="52" width="88" height="16" rx="8" fill="#f59e0b" />
  <path d="M42 76L54.75 40h7.5L56.5 76h-6.5v-24L45 76h-3Z" fill="#ffffff" />
  <path d="M64 76h-6v-21.5L54.5 76H48l8.5-33h6L64 76Z" fill="#ffffff" opacity="0.9" />
</svg>
